<svg xmlns="http://www.w3.org/2000/svg" width="47" height="47" viewBox="0 0 47 47"><defs><style>.a{fill:#52d5b9;}.b{fill:#fff;}</style></defs><g transform="translate(-459 -192)"><circle class="a" cx="23.5" cy="23.5" r="23.5" transform="translate(459 192)"/><g transform="translate(469.997 228.003) rotate(-90)"><g transform="translate(-401.316 -462.022)"><path class="b" d="M422.483,466.719a.832.832,0,0,0-.867.826l-.064,13.177a.549.549,0,0,1-.523.552l-15.486.064h0a.5.5,0,0,1-.359-.154.572.572,0,0,1-.165-.423l.077-13.18a.844.844,0,0,0-.829-.862.878.878,0,0,0-.87.822l-.077,13.179a2.268,2.268,0,0,0,.65,1.644,2.2,2.2,0,0,0,1.572.658h.011l15.487-.064a2.225,2.225,0,0,0,2.215-2.2l.064-13.178a.846.846,0,0,0-.836-.861Z"/><path class="b" d="M412.706,479.366l.01.007.016.016.006.008a.8.8,0,0,0,.123.078.884.884,0,0,0,.131.088H413a.858.858,0,0,0,.319.064h.013a.868.868,0,0,0,.3-.061h.011q.126-.085.255-.166l.006-.008.017-.017.009-.006,5.505-5.748a.835.835,0,0,0-.031-1.19.856.856,0,0,0-1.2.031l-4.042,4.22-.014-10.817a.845.845,0,0,0-.85-.84h0a.845.845,0,0,0-.849.842l.014,10.809-4.05-4.229a.857.857,0,0,0-1.2-.031.836.836,0,0,0-.032,1.19Z"/></g></g></g></svg>